# File created by Blade
# Date/Time:  Fri Jan 16 19:14:28 2015
# Frame Rate: 120.000 fps
#------------------------------------------------------
:FULLY-SPECIFIED
:DEGREES
427
root 18.957002 35.656008 -22.883917 -165.012710 -1.778822 -178.452608
Spine -29.374005 0.805507 0.208277
Head 19.191774 -3.388565 0.056277
LeftShoulder -28.994062 -53.661547 58.223708
LeftArm 40.071263 -56.173341 -7.160620
LeftForeArm -4.200877 -0.000000 95.627840
LeftHand -16.588036 -0.000000 -29.401709
LeftHandThumb1 -26.253704 0.000000 33.147579
RightShoulder -19.307223 16.575713 -38.324763
RightArm 39.588254 77.547996 6.879564
RightForeArm -84.624141 -0.000000 114.587693
RightHand -5.944032 -0.000000 43.826532
RightHandThumb1 -24.326973 -0.000000 -32.862282
LeftUpLeg -4.247264 6.929705 0.368971
LeftLeg -7.532865 -0.000000 0.000000
LeftFoot -21.065451 28.141748 -15.941919
LeftToeBase 23.973754 -0.000000 -0.000000
RightUpLeg -5.849319 -9.620514 1.746776
RightLeg -4.024521 -0.000000 0.000000
RightFoot -20.735794 -22.630686 20.335821
RightToeBase 22.685571 -0.000000 -0.000000
428
root 18.955533 35.655238 -22.888971 -164.998588 -1.802710 -178.465550
Spine -29.401077 0.817105 0.205162
Head 19.220916 -3.481082 0.032576
LeftShoulder -29.005854 -53.551869 58.100255
LeftArm 39.868025 -56.463632 -7.201067
LeftForeArm -4.672886 -0.000000 96.290489
LeftHand -16.475153 -0.000000 -29.097173
LeftHandThumb1 -26.253704 0.000000 33.147579
RightShoulder -19.339726 16.512722 -38.214372
RightArm 39.737888 77.722074 7.013890
RightForeArm -84.122338 0.000000 115.302984
RightHand -6.079183 -0.000000 43.394945
RightHandThumb1 -24.326973 -0.000000 -32.862282
LeftUpLeg -4.255756 6.921267 0.358501
LeftLeg -7.532831 -0.000000 0.000000
LeftFoot -21.063499 28.111930 -15.965569
LeftToeBase 23.927443 -0.000000 -0.000000
RightUpLeg -5.848203 -9.632624 1.738429
RightLeg -4.033156 -0.000000 0.000000
RightFoot -20.757424 -22.658111 20.352740
RightToeBase 22.706294 -0.000000 -0.000000
429
root 18.954777 35.655097 -22.893919 -164.990181 -1.831496 -178.481635
Spine -29.407291 0.800205 0.189205
Head 19.252203 -3.590395 0.001800
LeftShoulder -29.093484 -53.465148 58.084935
LeftArm 39.562510 -56.739205 -7.152785
LeftForeArm -5.420888 0.000000 96.964042
LeftHand -16.468374 -0.000000 -28.946152
LeftHandThumb1 -26.253704 0.000000 33.147579
RightShoulder -19.376854 16.513151 -38.125112
RightArm 39.822182 77.857529 7.142544
RightForeArm -84.027765 0.000000 116.076866
RightHand -6.036764 -0.000000 43.443457
RightHandThumb1 -24.326973 -0.000000 -32.862282
LeftUpLeg -4.257517 6.921240 0.344677
LeftLeg -7.538504 -0.000000 0.000000
LeftFoot -21.047036 28.078797 -15.962359
LeftToeBase 23.933115 -0.000000 -0.000000
RightUpLeg -5.836118 -9.652275 1.728148
RightLeg -4.051486 -0.000000 0.000000
RightFoot -20.769136 -22.667287 20.348800
RightToeBase 22.714215 -0.000000 -0.000000
430
root 18.953558 35.654593 -22.898767 -164.983347 -1.849500 -178.492207
Spine -29.419779 0.813499 0.192521
Head 19.295772 -3.634912 -0.035252
LeftShoulder -29.146232 -53.387515 58.028692
LeftArm 39.168157 -57.019969 -7.052887
LeftForeArm -6.108163 -0.000000 97.766411
LeftHand -16.563490 -0.000000 -28.763699
LeftHandThumb1 -26.253704 0.000000 33.147579
RightShoulder -19.428033 16.464319 -38.045877
RightArm 39.863036 78.019074 7.219124
RightForeArm -83.999565 0.000000 116.828717
RightHand -5.971265 -0.000000 43.513279
RightHandThumb1 -24.326973 -0.000000 -32.862282
LeftUpLeg -4.253951 6.926570 0.333594
LeftLeg -7.548813 -0.000000 0.000000
LeftFoot -21.035481 28.057567 -15.968691
LeftToeBase 23.914191 -0.000000 -0.000000
RightUpLeg -5.822128 -9.672804 1.718159
RightLeg -4.069488 -0.000000 0.000000
RightFoot -20.737923 -22.668578 20.303020
RightToeBase 22.666411 -0.000000 -0.000000
431
root 18.951366 35.655085 -22.902999 -164.973549 -1.875604 -178.505099
Spine -29.428970 0.823411 0.204586
Head 19.332550 -3.627246 -0.059906
LeftShoulder -29.266321 -53.362103 58.022040
LeftArm 38.842107 -57.244531 -7.033091
LeftForeArm -6.579994 -0.000000 98.553049
LeftHand -16.568509 -0.000000 -28.503420
LeftHandThumb1 -26.253704 0.000000 33.147579
RightShoulder -19.476992 16.477430 -38.000983
RightArm 39.688210 78.134373 7.080044
RightForeArm -84.018633 -0.000000 117.596748
RightHand -5.973341 -0.000000 43.655945
RightHandThumb1 -24.326973 -0.000000 -32.862282
LeftUpLeg -4.255873 6.913392 0.320374
LeftLeg -7.558639 -0.000000 0.000000
LeftFoot -21.037614 28.040654 -16.000888
LeftToeBase 23.929659 -0.000000 -0.000000
RightUpLeg -5.811187 -9.704286 1.712274
RightLeg -4.094782 -0.000000 0.000000
RightFoot -20.763493 -22.672393 20.362798
RightToeBase 22.713835 -0.000000 -0.000000
432
root 18.948978 35.655139 -22.907342 -164.952524 -1.891581 -178.512280
Spine -29.453360 0.846708 0.211698
Head 19.369493 -3.607159 -0.041039
LeftShoulder -29.382500 -53.323269 57.988070
LeftArm 38.504389 -57.503388 -6.972440
LeftForeArm -7.312722 -0.000000 99.268981
LeftHand -16.405606 -0.000000 -28.309793
LeftHandThumb1 -26.253704 0.000000 33.147579
RightShoulder -19.518646 16.502620 -37.915309
RightArm 39.424655 78.202346 6.774554
RightForeArm -83.947812 0.000000 118.253908
RightHand -5.951110 -0.000000 43.236152
RightHandThumb1 -24.326973 -0.000000 -32.862282
LeftUpLeg -4.268669 6.930231 0.302498
LeftLeg -7.577735 -0.000000 0.000000
LeftFoot -21.017317 28.050653 -16.004082
LeftToeBase 23.909927 -0.000000 -0.000000
RightUpLeg -5.813101 -9.713004 1.705457
RightLeg -4.111033 -0.000000 0.000000
RightFoot -20.754023 -22.679620 20.361408
RightToeBase 22.679345 -0.000000 -0.000000
433
root 18.947145 35.655216 -22.911390 -164.941392 -1.908228 -178.521524
Spine -29.471786 0.870839 0.220395
Head 19.439667 -3.599195 -0.054694
LeftShoulder -29.477382 -53.307328 57.948916
LeftArm 38.131843 -57.733408 -6.896829
LeftForeArm -7.664898 -0.000000 100.119049
LeftHand -16.373423 -0.000000 -28.255045
LeftHandThumb1 -26.253704 0.000000 33.147579
RightShoulder -19.579065 16.515390 -37.880425
RightArm 39.211122 78.205821 6.593985
RightForeArm -84.081866 -0.000000 119.020584
RightHand -6.172627 -0.000000 43.199880
RightHandThumb1 -24.326973 -0.000000 -32.862282
LeftUpLeg -4.275471 6.926957 0.299015
LeftLeg -7.566616 -0.000000 0.000000
LeftFoot -21.006532 27.990192 -15.997389
LeftToeBase 23.925373 -0.000000 -0.000000
RightUpLeg -5.809748 -9.736839 1.700163
RightLeg -4.124958 -0.000000 0.000000
RightFoot -20.756435 -22.673843 20.392246
RightToeBase 22.685321 -0.000000 -0.000000
434
root 18.945155 35.655325 -22.915742 -164.929930 -1.934661 -178.533031
Spine -29.489857 0.882942 0.223912
Head 19.517261 -3.592798 -0.045826
LeftShoulder -29.564788 -53.260429 57.892257
LeftArm 37.721704 -57.978890 -6.770529
LeftForeArm -8.155788 -0.000000 100.983803
LeftHand -16.335775 -0.000000 -28.066558
LeftHandThumb1 -26.253704 0.000000 33.147579
RightShoulder -19.612357 16.517743 -37.836572
RightArm 38.695003 78.289988 6.162009
RightForeArm -84.243348 -0.000000 119.862426
RightHand -6.171458 -0.000000 43.477824
RightHandThumb1 -24.326973 -0.000000 -32.862282
LeftUpLeg -4.285902 6.922749 0.287947
LeftLeg -7.560330 -0.000000 0.000000
LeftFoot -20.995887 27.953218 -16.004287
LeftToeBase 23.889353 -0.000000 -0.000000
RightUpLeg -5.801945 -9.760703 1.693280
RightLeg -4.141603 -0.000000 0.000000
RightFoot -20.759871 -22.676412 20.405867
RightToeBase 22.652364 -0.000000 -0.000000
435
root 18.943654 35.655951 -22.920043 -164.912608 -1.962954 -178.542228
Spine -29.516127 0.887923 0.225180
Head 19.591781 -3.558914 -0.037062
LeftShoulder -29.677666 -53.218867 57.859684
LeftArm 37.368487 -58.188454 -6.683284
LeftForeArm -8.493924 -0.000000 101.842855
LeftHand -16.405344 -0.000000 -27.639480
LeftHandThumb1 -26.253704 0.000000 33.147579
RightShoulder -19.653478 16.547170 -37.777723
RightArm 38.574537 78.391937 6.091094
RightForeArm -84.254320 0.000000 120.591801
RightHand -6.130873 0.000000 43.341791
RightHandThumb1 -24.326973 -0.000000 -32.862282
LeftUpLeg -4.298079 6.907627 0.281366
LeftLeg -7.563239 -0.000000 0.000000
LeftFoot -20.992580 27.929588 -16.024741
LeftToeBase 23.873648 -0.000000 -0.000000
RightUpLeg -5.798336 -9.797210 1.692085
RightLeg -4.164681 -0.000000 0.000000
RightFoot -20.759141 -22.660301 20.423151
RightToeBase 22.723544 -0.000000 -0.000000
436
root 18.941949 35.656429 -22.923523 -164.896177 -1.976033 -178.554375
Spine -29.540994 0.896959 0.227003
Head 19.679696 -3.557830 -0.031191
LeftShoulder -29.727979 -53.146395 57.723575
LeftArm 37.021668 -58.439308 -6.493828
LeftForeArm -8.804318 -0.000000 102.622654
LeftHand -16.351354 -0.000000 -27.294975
LeftHandThumb1 -26.253704 0.000000 33.147579
RightShoulder -19.661076 16.556121 -37.662784
RightArm 38.258076 78.539634 5.727452
RightForeArm -84.323407 -0.000000 121.276640
RightHand -6.072416 -0.000000 43.164607
RightHandThumb1 -24.326973 -0.000000 -32.862282
LeftUpLeg -4.311493 6.905091 0.267108
LeftLeg -7.561502 -0.000000 0.000000
LeftFoot -20.992381 27.910494 -16.058026
LeftToeBase 23.858395 -0.000000 -0.000000
RightUpLeg -5.799138 -9.802962 1.680227
RightLeg -4.180203 -0.000000 0.000000
RightFoot -20.750162 -22.664401 20.433674
RightToeBase 22.705307 -0.000000 -0.000000
